<?xml version="1.0" encoding="iso-8859-1"?>
<!-- Generator: Adobe Illustrator 19.0.0, SVG Export Plug-In . SVG Version: 6.00 Build 0)  -->
<!-- License: CC0. Made by SVG Repo: https://www.svgrepo.com/svg/262417/photographer-develop -->
<svg version="1.1" id="Layer_1" xmlns="http://www.w3.org/2000/svg" xmlns:xlink="http://www.w3.org/1999/xlink" x="0px" y="0px"
	 viewBox="0 0 512 512" style="enable-background:new 0 0 512 512;" xml:space="preserve">
<g>
	<g>
		<g>
			<path d="M329.761,211.167v-22.528c0-34.928-24.412-64.243-57.066-71.831V16.696C272.696,7.475,265.22,0,256,0
				s-16.696,7.475-16.696,16.696v100.112c-32.653,7.589-57.066,36.903-57.066,71.831v22.529
				c-25.207,21.508-40.032,53.271-40.032,86.619c0,62.746,51.046,113.792,113.792,113.792s113.792-51.046,113.792-113.792
				C369.792,264.437,354.965,232.672,329.761,211.167z M256,148.27c20.677,0,40.37,15.618,40.37,43.08
				c-26.624-10.113-55.856-9.454-80.739,0C215.63,164.083,235.167,148.27,256,148.27z M256,378.187
				c-44.334,0-80.401-36.067-80.401-80.401c0-33.651,21.252-64.308,53.444-75.768l-20.205,48.562
				c-3.542,8.514,0.487,18.286,9.002,21.828c8.511,3.542,18.285-0.487,21.828-9.001L256,244.153l16.332,39.255
				c3.547,8.521,13.325,12.541,21.828,9.001c8.514-3.542,12.544-13.314,9.002-21.828l-20.204-48.562
				c32.139,11.443,53.444,42.085,53.444,75.768C336.401,342.12,300.334,378.187,256,378.187z"/>
			<path d="M256,436.555c-9.22,0-16.696,7.475-16.696,16.696v42.054c0,9.22,7.475,16.696,16.696,16.696s16.696-7.475,16.696-16.696
				V453.25C272.696,444.03,265.22,436.555,256,436.555z"/>
			<path d="M377.736,395.91c-6.519-6.52-17.091-6.52-23.611,0c-6.52,6.52-6.52,17.091,0,23.611l29.737,29.737
				c6.519,6.52,17.091,6.521,23.611,0c6.52-6.52,6.52-17.091,0-23.611L377.736,395.91z"/>
			<path d="M117.23,297.785c0-9.22-7.475-16.696-16.696-16.696H58.48c-9.22,0-16.696,7.475-16.696,16.696
				c0,9.22,7.475,16.696,16.696,16.696h42.054C109.755,314.48,117.23,307.005,117.23,297.785z"/>
			<path d="M453.52,281.089h-42.054c-9.22,0-16.696,7.475-16.696,16.696s7.475,16.696,16.696,16.696h42.054
				c9.22,0,16.696-7.475,16.696-16.696S462.74,281.089,453.52,281.089z"/>
			<path d="M134.264,395.91l-29.737,29.737c-6.52,6.52-6.52,17.091,0,23.611c6.519,6.52,17.091,6.521,23.611,0l29.737-29.737
				c6.52-6.52,6.52-17.091,0-23.611C151.355,389.389,140.783,389.389,134.264,395.91z"/>
		</g>
	</g>
</g>
</svg>
